<svg width="38" height="38" viewBox="0 0 38 38" fill="none" xmlns="http://www.w3.org/2000/svg">
<g filter="url(#filter0_d_7_31)">
<path d="M19.0033 7.30838C14.7468 7.30838 11.3134 10.7425 11.3134 15C11.3134 19.2575 14.7468 22.6916 19.0033 22.6916C23.2599 22.6916 26.6933 19.2575 26.6933 15C26.6933 10.7425 23.2599 7.30838 19.0033 7.30838ZM19.0033 20.0006C16.2527 20.0006 14.0039 17.758 14.0039 15C14.0039 12.242 16.246 9.99944 19.0033 9.99944C21.7607 9.99944 24.0028 12.242 24.0028 15C24.0028 17.758 21.754 20.0006 19.0033 20.0006V20.0006ZM28.8015 6.99375C28.8015 7.99119 27.9983 8.78779 27.0078 8.78779C26.0106 8.78779 25.2142 7.98449 25.2142 6.99375C25.2142 6.00301 26.0173 5.19971 27.0078 5.19971C27.9983 5.19971 28.8015 6.00301 28.8015 6.99375ZM33.8946 8.81457C33.7808 6.41136 33.232 4.28261 31.4718 2.52873C29.7184 0.774852 27.5901 0.225929 25.1874 0.105433C22.7111 -0.0351445 15.2889 -0.0351445 12.8126 0.105433C10.4166 0.219235 8.28834 0.768158 6.52817 2.52203C4.76799 4.27591 4.22588 6.40466 4.10541 8.80788C3.96486 11.2847 3.96486 18.7086 4.10541 21.1854C4.21919 23.5886 4.76799 25.7174 6.52817 27.4713C8.28834 29.2251 10.4099 29.7741 12.8126 29.8946C15.2889 30.0351 22.7111 30.0351 25.1874 29.8946C27.5901 29.7808 29.7184 29.2318 31.4718 27.4713C33.2253 25.7174 33.7741 23.5886 33.8946 21.1854C34.0351 18.7086 34.0351 11.2914 33.8946 8.81457V8.81457ZM30.6955 23.843C30.1735 25.1551 29.1629 26.1659 27.8444 26.6947C25.8701 27.478 21.1852 27.2972 19.0033 27.2972C16.8215 27.2972 12.1299 27.4713 10.1623 26.6947C8.85053 26.1726 7.83993 25.1618 7.31121 23.843C6.52817 21.8682 6.70887 17.1823 6.70887 15C6.70887 12.8177 6.53486 8.12507 7.31121 6.15698C7.83324 4.84492 8.84384 3.8341 10.1623 3.30525C12.1366 2.52203 16.8215 2.70278 19.0033 2.70278C21.1852 2.70278 25.8767 2.52873 27.8444 3.30525C29.1562 3.8274 30.1668 4.83822 30.6955 6.15698C31.4785 8.13176 31.2978 12.8177 31.2978 15C31.2978 17.1823 31.4785 21.8749 30.6955 23.843Z" fill="white"/>
<path d="M31.1182 2.88224L31.1189 2.88292C32.7553 4.51347 33.2844 6.49854 33.3952 8.83822L33.8945 8.81457L33.3954 8.8429C33.5349 11.3009 33.5349 18.6991 33.3954 21.1571L33.3952 21.1604C33.2779 23.5012 32.7487 25.487 31.1182 27.1178L31.1176 27.1184C29.4874 28.7552 27.5028 29.2843 25.1637 29.3951L25.1637 29.3951L25.1591 29.3954C22.7016 29.5349 15.2984 29.5349 12.8409 29.3954L12.8376 29.3952C10.4981 29.2779 8.51867 28.7488 6.88108 27.1171C5.24468 25.4865 4.71562 23.5015 4.60485 21.1618L4.60487 21.1618L4.60461 21.1571C4.46513 18.6991 4.46513 11.2942 4.60461 8.8362H4.60462L4.60478 8.83291C4.72218 6.49096 5.24514 4.50631 6.88108 2.87622C8.51846 1.24471 10.5042 0.715637 12.8363 0.60487L12.8363 0.604892L12.8409 0.60463C15.2984 0.465123 22.7016 0.465123 25.1591 0.604641L25.1624 0.604806C27.5026 0.722171 29.4879 1.25149 31.1182 2.88224ZM28.0288 27.1595L28.0305 27.1588C29.4753 26.5793 30.587 25.4681 31.1601 24.0279C31.5887 22.9506 31.7377 21.1996 31.7901 19.5174C31.8281 18.2959 31.8155 17.0525 31.8054 16.0516C31.8014 15.6583 31.7978 15.3024 31.7978 15C31.7978 14.6976 31.8014 14.3417 31.8054 13.9485C31.8155 12.9482 31.8281 11.7059 31.7901 10.4851C31.7376 8.80346 31.5886 7.05295 31.1603 5.97268L31.1596 5.97091C30.5802 4.52592 29.4693 3.41388 28.0293 2.8407L28.0279 2.84016C26.9517 2.41542 25.2019 2.26632 23.52 2.21307C22.2895 2.17411 21.0376 2.18612 20.0331 2.19575C19.6485 2.19944 19.3003 2.20278 19.0033 2.20278C18.701 2.20278 18.3452 2.19918 17.9521 2.1952C16.952 2.18507 15.71 2.17249 14.4894 2.21055C12.8082 2.26297 11.058 2.41202 9.97793 2.84049L9.97792 2.84049L9.97616 2.84119C8.53142 3.42069 7.41965 4.53192 6.84663 5.97214L6.84609 5.9735C6.42146 7.04996 6.27239 8.80004 6.21916 10.4823C6.18021 11.7131 6.19221 12.9653 6.20184 13.97C6.20553 14.3547 6.20887 14.703 6.20887 15C6.20887 15.3024 6.20527 15.6583 6.20129 16.0515C6.19116 17.0518 6.17859 18.2941 6.21664 19.5149C6.26905 21.1965 6.41807 22.9471 6.84641 24.0273L6.84712 24.0291C7.42646 25.4741 8.53743 26.5861 9.97738 27.1593L9.97875 27.1598C11.055 27.5846 12.8048 27.7337 14.4867 27.7869C15.7172 27.8259 16.9691 27.8139 17.9736 27.8042C18.3582 27.8006 18.7064 27.7972 19.0033 27.7972C19.3057 27.7972 19.6615 27.8008 20.0546 27.8048C21.0547 27.8149 22.2967 27.8275 23.5173 27.7894C25.1985 27.737 26.9487 27.588 28.0288 27.1595ZM11.8134 15C11.8134 11.0185 15.023 7.80838 19.0033 7.80838C22.9837 7.80838 26.1933 11.0185 26.1933 15C26.1933 18.9815 22.9837 22.1916 19.0033 22.1916C15.023 22.1916 11.8134 18.9815 11.8134 15ZM13.5039 15C13.5039 18.0345 15.9768 20.5006 19.0033 20.5006C22.0299 20.5006 24.5028 18.0345 24.5028 15C24.5028 11.966 22.037 9.49944 19.0033 9.49944C15.9697 9.49944 13.5039 11.966 13.5039 15ZM28.3015 6.99375C28.3015 7.71393 27.7233 8.2878 27.0078 8.2878C26.2881 8.2878 25.7142 7.70967 25.7142 6.99375C25.7142 6.27905 26.2935 5.69971 27.0078 5.69971C27.7221 5.69971 28.3015 6.27905 28.3015 6.99375Z" stroke="black"/>
</g>
<defs>
<filter id="filter0_d_7_31" x="0" y="0" width="38" height="38" filterUnits="userSpaceOnUse" color-interpolation-filters="sRGB">
<feFlood flood-opacity="0" result="BackgroundImageFix"/>
<feColorMatrix in="SourceAlpha" type="matrix" values="0 0 0 0 0 0 0 0 0 0 0 0 0 0 0 0 0 0 127 0" result="hardAlpha"/>
<feOffset dy="4"/>
<feGaussianBlur stdDeviation="2"/>
<feComposite in2="hardAlpha" operator="out"/>
<feColorMatrix type="matrix" values="0 0 0 0 0 0 0 0 0 0 0 0 0 0 0 0 0 0 0.25 0"/>
<feBlend mode="normal" in2="BackgroundImageFix" result="effect1_dropShadow_7_31"/>
<feBlend mode="normal" in="SourceGraphic" in2="effect1_dropShadow_7_31" result="shape"/>
</filter>
</defs>
</svg>
