<svg width="194" height="27" viewBox="0 0 194 27" fill="none" xmlns="http://www.w3.org/2000/svg">
<path d="M12.2011 1.83444C12.7733 0.674977 14.4267 0.674979 14.9989 1.83444L17.8218 7.55416C18.049 8.01459 18.4882 8.33371 18.9963 8.40755L25.3084 9.32475C26.588 9.51068 27.0989 11.0831 26.173 11.9856L21.6055 16.4378C21.2379 16.7962 21.0701 17.3126 21.1569 17.8186L22.2351 24.1052C22.4537 25.3796 21.1161 26.3514 19.9716 25.7497L14.3259 22.7816C13.8715 22.5427 13.3285 22.5427 12.8741 22.7816L7.22837 25.7497C6.08391 26.3514 4.74632 25.3796 4.96489 24.1052L6.04313 17.8186C6.12992 17.3126 5.96215 16.7962 5.59448 16.4378L1.02701 11.9856C0.101119 11.0831 0.612036 9.51068 1.89158 9.32475L8.20367 8.40755C8.71177 8.33371 9.15102 8.01459 9.37825 7.55416L12.2011 1.83444Z" fill="#F2C94C"/>
<path d="M43.4011 1.83444C43.9733 0.674977 45.6266 0.674979 46.1989 1.83444L49.0217 7.55416C49.249 8.01459 49.6882 8.33371 50.1963 8.40755L56.5084 9.32475C57.7879 9.51068 58.2989 11.0831 57.373 11.9856L52.8055 16.4378C52.4378 16.7962 52.27 17.3126 52.3568 17.8186L53.4351 24.1052C53.6536 25.3796 52.3161 26.3514 51.1716 25.7497L45.5259 22.7816C45.0714 22.5427 44.5285 22.5427 44.074 22.7816L38.4283 25.7497C37.2839 26.3514 35.9463 25.3796 36.1648 24.1052L37.2431 17.8186C37.3299 17.3126 37.1621 16.7962 36.7944 16.4378L32.227 11.9856C31.3011 11.0831 31.812 9.51068 33.0915 9.32475L39.4036 8.40755C39.9117 8.33371 40.351 8.01459 40.5782 7.55416L43.4011 1.83444Z" fill="#F2C94C"/>
<path d="M74.601 1.83444C75.1732 0.674977 76.8266 0.674979 77.3988 1.83444L80.2217 7.55416C80.4489 8.01459 80.8881 8.33371 81.3963 8.40755L87.7083 9.32475C88.9879 9.51068 89.4988 11.0831 88.5729 11.9856L84.0054 16.4378C83.6378 16.7962 83.47 17.3126 83.5568 17.8186L84.635 24.1052C84.8536 25.3796 83.516 26.3514 82.3715 25.7497L76.7258 22.7816C76.2714 22.5427 75.7284 22.5427 75.274 22.7816L69.6283 25.7497C68.4838 26.3514 67.1462 25.3796 67.3648 24.1052L68.443 17.8186C68.5298 17.3126 68.362 16.7962 67.9944 16.4378L63.4269 11.9856C62.501 11.0831 63.0119 9.51068 64.2915 9.32475L70.6036 8.40755C71.1117 8.33371 71.5509 8.01459 71.7782 7.55416L74.601 1.83444Z" fill="#F2C94C"/>
<path d="M105.801 1.83444C106.373 0.674977 108.027 0.674979 108.599 1.83444L111.422 7.55416C111.649 8.01459 112.088 8.33371 112.596 8.40755L118.909 9.32475C120.188 9.51068 120.699 11.0831 119.773 11.9856L115.206 16.4378C114.838 16.7962 114.67 17.3126 114.757 17.8186L115.835 24.1052C116.054 25.3796 114.716 26.3514 113.572 25.7497L107.926 22.7816C107.472 22.5427 106.929 22.5427 106.474 22.7816L100.828 25.7497C99.684 26.3514 98.3464 25.3796 98.565 24.1052L99.6432 17.8186C99.73 17.3126 99.5622 16.7962 99.1946 16.4378L94.6271 11.9856C93.7012 11.0831 94.2121 9.51068 95.4917 9.32475L101.804 8.40755C102.312 8.33371 102.751 8.01459 102.978 7.55416L105.801 1.83444Z" fill="#F2C94C"/>
<path d="M137.001 1.83444C137.573 0.674977 139.227 0.674979 139.799 1.83444L142.622 7.55416C142.849 8.01459 143.288 8.33371 143.796 8.40755L150.108 9.32475C151.388 9.51068 151.899 11.0831 150.973 11.9856L146.406 16.4378C146.038 16.7962 145.87 17.3126 145.957 17.8186L147.035 24.1052C147.254 25.3796 145.916 26.3514 144.772 25.7497L139.126 22.7816C138.672 22.5427 138.129 22.5427 137.674 22.7816L132.028 25.7497C130.884 26.3514 129.546 25.3796 129.765 24.1052L130.843 17.8186C130.93 17.3126 130.762 16.7962 130.395 16.4378L125.827 11.9856C124.901 11.0831 125.412 9.51068 126.692 9.32475L133.004 8.40755C133.512 8.33371 133.951 8.01459 134.178 7.55416L137.001 1.83444Z" fill="#F2C94C"/>
<path d="M170.484 14.5999C170.182 14.9593 169.82 15.2484 169.398 15.4671C168.982 15.6859 168.523 15.7952 168.023 15.7952C167.367 15.7952 166.794 15.6338 166.305 15.3109C165.82 14.9879 165.445 14.5348 165.18 13.9515C164.914 13.3629 164.781 12.7145 164.781 12.0062C164.781 11.2457 164.924 10.5609 165.211 9.95148C165.503 9.3421 165.914 8.87596 166.445 8.55304C166.977 8.23012 167.596 8.06866 168.305 8.06866C169.43 8.06866 170.315 8.49054 170.961 9.33429C171.612 10.1728 171.938 11.3187 171.938 12.7718V13.1937C171.938 15.4072 171.5 17.0244 170.625 18.0452C169.75 19.0609 168.43 19.5817 166.664 19.6077H166.383V18.389H166.688C167.88 18.3681 168.797 18.0582 169.438 17.4593C170.078 16.8551 170.427 15.902 170.484 14.5999ZM168.258 14.5999C168.742 14.5999 169.188 14.4515 169.594 14.1546C170.005 13.8577 170.305 13.4905 170.492 13.053V12.4749C170.492 11.527 170.286 10.7562 169.875 10.1624C169.464 9.56866 168.943 9.27179 168.312 9.27179C167.677 9.27179 167.167 9.51658 166.781 10.0062C166.396 10.4905 166.203 11.1312 166.203 11.928C166.203 12.7041 166.388 13.3447 166.758 13.8499C167.133 14.3499 167.633 14.5999 168.258 14.5999ZM174.594 13.8968L175.172 8.22491H181V9.56085H176.398L176.055 12.6624C176.612 12.3343 177.245 12.1702 177.953 12.1702C178.99 12.1702 179.812 12.514 180.422 13.2015C181.031 13.8838 181.336 14.8082 181.336 15.9749C181.336 17.1468 181.018 18.0713 180.383 18.7484C179.753 19.4202 178.87 19.7562 177.734 19.7562C176.729 19.7562 175.909 19.4775 175.273 18.9202C174.638 18.3629 174.276 17.5921 174.188 16.6077H175.555C175.643 17.2588 175.875 17.751 176.25 18.0843C176.625 18.4124 177.12 18.5765 177.734 18.5765C178.406 18.5765 178.932 18.3473 179.312 17.889C179.698 17.4306 179.891 16.7978 179.891 15.9905C179.891 15.2301 179.682 14.6207 179.266 14.1624C178.854 13.6989 178.305 13.4671 177.617 13.4671C176.987 13.4671 176.492 13.6051 176.133 13.8812L175.75 14.1937L174.594 13.8968ZM182.789 10.4124C182.789 9.73012 183.005 9.16762 183.438 8.72491C183.875 8.28221 184.435 8.06085 185.117 8.06085C185.81 8.06085 186.37 8.28481 186.797 8.73273C187.229 9.17544 187.445 9.75096 187.445 10.4593V11.014C187.445 11.7015 187.227 12.264 186.789 12.7015C186.357 13.1338 185.805 13.3499 185.133 13.3499C184.456 13.3499 183.896 13.1338 183.453 12.7015C183.01 12.264 182.789 11.6832 182.789 10.9593V10.4124ZM183.867 11.014C183.867 11.4202 183.982 11.7562 184.211 12.0218C184.44 12.2822 184.747 12.4124 185.133 12.4124C185.503 12.4124 185.799 12.2848 186.023 12.0296C186.253 11.7744 186.367 11.4254 186.367 10.9827V10.4124C186.367 10.0062 186.255 9.67023 186.031 9.4046C185.807 9.13898 185.503 9.00616 185.117 9.00616C184.732 9.00616 184.427 9.13898 184.203 9.4046C183.979 9.67023 183.867 10.0166 183.867 10.4437V11.014ZM188.328 16.8109C188.328 16.1286 188.544 15.5687 188.977 15.1312C189.414 14.6885 189.974 14.4671 190.656 14.4671C191.339 14.4671 191.898 14.6859 192.336 15.1234C192.773 15.5609 192.992 16.1416 192.992 16.8655V17.4202C192.992 18.1025 192.773 18.665 192.336 19.1077C191.904 19.5452 191.349 19.764 190.672 19.764C189.995 19.764 189.435 19.5478 188.992 19.1155C188.549 18.678 188.328 18.0973 188.328 17.3734V16.8109ZM189.406 17.4202C189.406 17.8317 189.521 18.1702 189.75 18.4359C189.979 18.6963 190.286 18.8265 190.672 18.8265C191.047 18.8265 191.346 18.6989 191.57 18.4437C191.794 18.1832 191.906 17.8317 191.906 17.389V16.8109C191.906 16.3994 191.792 16.0635 191.562 15.803C191.339 15.5426 191.036 15.4124 190.656 15.4124C190.286 15.4124 189.984 15.5426 189.75 15.803C189.521 16.0582 189.406 16.4046 189.406 16.8421V17.4202ZM185.461 18.7405L184.641 18.2249L190.195 9.33429L191.016 9.84991L185.461 18.7405Z" fill="#1D1C1F"/>
</svg>
