<svg width="196" height="32" viewBox="0 0 196 32" fill="none" xmlns="http://www.w3.org/2000/svg">
<path d="M14.2011 2.8345C14.7733 1.67503 16.4267 1.67503 16.9989 2.8345L19.8218 8.55422C20.049 9.01464 20.4882 9.33377 20.9963 9.4076L27.3084 10.3248C28.588 10.5107 29.0989 12.0832 28.173 12.9857L23.6055 17.4379C23.2379 17.7963 23.0701 18.3126 23.1569 18.8187L24.2351 25.1052C24.4537 26.3796 23.1161 27.3514 21.9716 26.7498L16.3259 23.7816C15.8715 23.5427 15.3285 23.5427 14.8741 23.7816L9.22836 26.7498C8.0839 27.3514 6.74631 26.3796 6.96489 25.1053L8.04312 18.8187C8.12991 18.3126 7.96214 17.7963 7.59447 17.4379L3.027 12.9857C2.10111 12.0832 2.61203 10.5107 3.89157 10.3248L10.2037 9.4076C10.7118 9.33377 11.151 9.01464 11.3782 8.55422L14.2011 2.8345Z" fill="#F2C94C"/>
<path d="M45.401 2.8345C45.9733 1.67503 47.6266 1.67503 48.1989 2.8345L51.0217 8.55422C51.2489 9.01464 51.6882 9.33377 52.1963 9.4076L58.5084 10.3248C59.7879 10.5107 60.2988 12.0832 59.373 12.9857L54.8055 17.4379C54.4378 17.7963 54.27 18.3126 54.3568 18.8187L55.4351 25.1052C55.6536 26.3796 54.316 27.3514 53.1716 26.7498L47.5259 23.7816C47.0714 23.5427 46.5285 23.5427 46.074 23.7816L40.4283 26.7498C39.2839 27.3514 37.9463 26.3796 38.1648 25.1053L39.2431 18.8187C39.3299 18.3126 39.1621 17.7963 38.7944 17.4379L34.2269 12.9857C33.3011 12.0832 33.812 10.5107 35.0915 10.3248L41.4036 9.4076C41.9117 9.33377 42.351 9.01464 42.5782 8.55422L45.401 2.8345Z" fill="#F2C94C"/>
<path d="M76.601 2.8345C77.1732 1.67503 78.8266 1.67503 79.3988 2.8345L82.2217 8.55422C82.4489 9.01464 82.8881 9.33377 83.3962 9.4076L89.7083 10.3248C90.9879 10.5107 91.4988 12.0832 90.5729 12.9857L86.0054 17.4379C85.6378 17.7963 85.47 18.3126 85.5568 18.8187L86.635 25.1052C86.8536 26.3796 85.516 27.3514 84.3715 26.7498L78.7258 23.7816C78.2714 23.5427 77.7284 23.5427 77.274 23.7816L71.6283 26.7498C70.4838 27.3514 69.1462 26.3796 69.3648 25.1053L70.443 18.8187C70.5298 18.3126 70.362 17.7963 69.9944 17.4379L65.4269 12.9857C64.501 12.0832 65.0119 10.5107 66.2915 10.3248L72.6036 9.4076C73.1117 9.33377 73.5509 9.01464 73.7781 8.55422L76.601 2.8345Z" fill="#F2C94C"/>
<path d="M107.801 2.8345C108.373 1.67503 110.027 1.67503 110.599 2.8345L113.422 8.55422C113.649 9.01464 114.088 9.33377 114.596 9.4076L120.909 10.3248C122.188 10.5107 122.699 12.0832 121.773 12.9857L117.206 17.4379C116.838 17.7963 116.67 18.3126 116.757 18.8187L117.835 25.1052C118.054 26.3796 116.716 27.3514 115.572 26.7498L109.926 23.7816C109.472 23.5427 108.929 23.5427 108.474 23.7816L102.828 26.7498C101.684 27.3514 100.346 26.3796 100.565 25.1053L101.643 18.8187C101.73 18.3126 101.562 17.7963 101.195 17.4379L96.6271 12.9857C95.7012 12.0832 96.2121 10.5107 97.4917 10.3248L103.804 9.4076C104.312 9.33377 104.751 9.01464 104.978 8.55422L107.801 2.8345Z" fill="#F2C94C"/>
<path d="M139.001 2.8345C139.573 1.67503 141.227 1.67503 141.799 2.8345L144.622 8.55422C144.849 9.01464 145.288 9.33377 145.796 9.4076L152.108 10.3248C153.388 10.5107 153.899 12.0832 152.973 12.9857L148.406 17.4379C148.038 17.7963 147.87 18.3126 147.957 18.8187L149.035 25.1052C149.254 26.3796 147.916 27.3514 146.772 26.7498L141.126 23.7816C140.672 23.5427 140.129 23.5427 139.674 23.7816L134.028 26.7498C132.884 27.3514 131.546 26.3796 131.765 25.1053L132.843 18.8187C132.93 18.3126 132.762 17.7963 132.395 17.4379L127.827 12.9857C126.901 12.0832 127.412 10.5107 128.692 10.3248L135.004 9.4076C135.512 9.33377 135.951 9.01464 136.178 8.55422L139.001 2.8345Z" fill="#F2C94C"/>
<path d="M172.484 15.6C172.182 15.9594 171.82 16.2484 171.398 16.4672C170.982 16.6859 170.523 16.7953 170.023 16.7953C169.367 16.7953 168.794 16.6338 168.305 16.3109C167.82 15.988 167.445 15.5349 167.18 14.9515C166.914 14.363 166.781 13.7146 166.781 13.0062C166.781 12.2458 166.924 11.5609 167.211 10.9515C167.503 10.3422 167.914 9.87602 168.445 9.5531C168.977 9.23018 169.596 9.06873 170.305 9.06873C171.43 9.06873 172.315 9.4906 172.961 10.3344C173.612 11.1729 173.938 12.3187 173.938 13.7719V14.1937C173.938 16.4073 173.5 18.0245 172.625 19.0453C171.75 20.0609 170.43 20.5817 168.664 20.6078H168.383V19.389H168.688C169.88 19.3682 170.797 19.0583 171.438 18.4594C172.078 17.8552 172.427 16.9021 172.484 15.6ZM170.258 15.6C170.742 15.6 171.188 15.4515 171.594 15.1547C172.005 14.8578 172.305 14.4906 172.492 14.0531V13.475C172.492 12.5271 172.286 11.7562 171.875 11.1625C171.464 10.5687 170.943 10.2719 170.312 10.2719C169.677 10.2719 169.167 10.5166 168.781 11.0062C168.396 11.4906 168.203 12.1312 168.203 12.9281C168.203 13.7041 168.388 14.3448 168.758 14.85C169.133 15.35 169.633 15.6 170.258 15.6ZM183.062 15.7484C183.062 17.4411 182.773 18.6989 182.195 19.5219C181.617 20.3448 180.714 20.7562 179.484 20.7562C178.271 20.7562 177.372 20.3552 176.789 19.5531C176.206 18.7458 175.904 17.5427 175.883 15.9437V14.014C175.883 12.3422 176.172 11.1 176.75 10.2875C177.328 9.47498 178.234 9.06873 179.469 9.06873C180.693 9.06873 181.594 9.46195 182.172 10.2484C182.75 11.0297 183.047 12.238 183.062 13.8734V15.7484ZM181.617 13.7719C181.617 12.5479 181.445 11.6573 181.102 11.1C180.758 10.5375 180.214 10.2562 179.469 10.2562C178.729 10.2562 178.19 10.5349 177.852 11.0922C177.513 11.6495 177.339 12.5062 177.328 13.6625V15.975C177.328 17.2041 177.505 18.113 177.859 18.7015C178.219 19.2849 178.76 19.5765 179.484 19.5765C180.198 19.5765 180.727 19.3005 181.07 18.7484C181.419 18.1963 181.602 17.3265 181.617 16.139V13.7719ZM184.789 11.4125C184.789 10.7302 185.005 10.1677 185.438 9.72498C185.875 9.28227 186.435 9.06091 187.117 9.06091C187.81 9.06091 188.37 9.28487 188.797 9.73279C189.229 10.1755 189.445 10.751 189.445 11.4594V12.014C189.445 12.7015 189.227 13.264 188.789 13.7015C188.357 14.1338 187.805 14.35 187.133 14.35C186.456 14.35 185.896 14.1338 185.453 13.7015C185.01 13.264 184.789 12.6833 184.789 11.9594V11.4125ZM185.867 12.014C185.867 12.4203 185.982 12.7562 186.211 13.0219C186.44 13.2823 186.747 13.4125 187.133 13.4125C187.503 13.4125 187.799 13.2849 188.023 13.0297C188.253 12.7745 188.367 12.4255 188.367 11.9828V11.4125C188.367 11.0062 188.255 10.6703 188.031 10.4047C187.807 10.139 187.503 10.0062 187.117 10.0062C186.732 10.0062 186.427 10.139 186.203 10.4047C185.979 10.6703 185.867 11.0166 185.867 11.4437V12.014ZM190.328 17.8109C190.328 17.1286 190.544 16.5687 190.977 16.1312C191.414 15.6885 191.974 15.4672 192.656 15.4672C193.339 15.4672 193.898 15.6859 194.336 16.1234C194.773 16.5609 194.992 17.1416 194.992 17.8656V18.4203C194.992 19.1026 194.773 19.6651 194.336 20.1078C193.904 20.5453 193.349 20.764 192.672 20.764C191.995 20.764 191.435 20.5479 190.992 20.1156C190.549 19.6781 190.328 19.0974 190.328 18.3734V17.8109ZM191.406 18.4203C191.406 18.8317 191.521 19.1703 191.75 19.4359C191.979 19.6963 192.286 19.8265 192.672 19.8265C193.047 19.8265 193.346 19.6989 193.57 19.4437C193.794 19.1833 193.906 18.8317 193.906 18.389V17.8109C193.906 17.3995 193.792 17.0635 193.562 16.8031C193.339 16.5427 193.036 16.4125 192.656 16.4125C192.286 16.4125 191.984 16.5427 191.75 16.8031C191.521 17.0583 191.406 17.4047 191.406 17.8422V18.4203ZM187.461 19.7406L186.641 19.225L192.195 10.3344L193.016 10.85L187.461 19.7406Z" fill="#1D1C1F"/>
</svg>
