<svg width="156" height="32" viewBox="0 0 156 32" fill="none" xmlns="http://www.w3.org/2000/svg">
<path d="M14.2011 2.8345C14.7733 1.67503 16.4267 1.67503 16.9989 2.8345L19.8218 8.55422C20.049 9.01464 20.4882 9.33377 20.9963 9.4076L27.3084 10.3248C28.588 10.5107 29.0989 12.0832 28.173 12.9857L23.6055 17.4379C23.2379 17.7963 23.0701 18.3126 23.1569 18.8187L24.2351 25.1052C24.4537 26.3796 23.1161 27.3514 21.9716 26.7498L16.3259 23.7816C15.8715 23.5427 15.3285 23.5427 14.8741 23.7816L9.22836 26.7498C8.0839 27.3514 6.74631 26.3796 6.96489 25.1053L8.04312 18.8187C8.12991 18.3126 7.96214 17.7963 7.59447 17.4379L3.027 12.9857C2.10111 12.0832 2.61203 10.5107 3.89157 10.3248L10.2037 9.4076C10.7118 9.33377 11.151 9.01464 11.3782 8.55422L14.2011 2.8345Z" fill="#F2C94C"/>
<path d="M45.401 2.8345C45.9733 1.67503 47.6266 1.67503 48.1989 2.8345L51.0217 8.55422C51.2489 9.01464 51.6882 9.33377 52.1963 9.4076L58.5084 10.3248C59.7879 10.5107 60.2988 12.0832 59.373 12.9857L54.8055 17.4379C54.4378 17.7963 54.27 18.3126 54.3568 18.8187L55.4351 25.1052C55.6536 26.3796 54.316 27.3514 53.1716 26.7498L47.5259 23.7816C47.0714 23.5427 46.5285 23.5427 46.074 23.7816L40.4283 26.7498C39.2839 27.3514 37.9463 26.3796 38.1648 25.1053L39.2431 18.8187C39.3299 18.3126 39.1621 17.7963 38.7944 17.4379L34.2269 12.9857C33.3011 12.0832 33.812 10.5107 35.0915 10.3248L41.4036 9.4076C41.9117 9.33377 42.351 9.01464 42.5782 8.55422L45.401 2.8345Z" fill="#F2C94C"/>
<path d="M76.601 2.8345C77.1732 1.67503 78.8266 1.67503 79.3988 2.8345L82.2217 8.55422C82.4489 9.01464 82.8881 9.33377 83.3962 9.4076L89.7083 10.3248C90.9879 10.5107 91.4988 12.0832 90.5729 12.9857L86.0054 17.4379C85.6378 17.7963 85.47 18.3126 85.5568 18.8187L86.635 25.1052C86.8536 26.3796 85.516 27.3514 84.3715 26.7498L78.7258 23.7816C78.2714 23.5427 77.7284 23.5427 77.274 23.7816L71.6283 26.7498C70.4838 27.3514 69.1462 26.3796 69.3648 25.1053L70.443 18.8187C70.5298 18.3126 70.362 17.7963 69.9944 17.4379L65.4269 12.9857C64.501 12.0832 65.0119 10.5107 66.2915 10.3248L72.6036 9.4076C73.1117 9.33377 73.5509 9.01464 73.7781 8.55422L76.601 2.8345Z" fill="#F2C94C"/>
<path d="M107.801 2.8345C108.373 1.67503 110.027 1.67503 110.599 2.8345L113.422 8.55422C113.649 9.01464 114.088 9.33377 114.596 9.4076L120.909 10.3248C122.188 10.5107 122.699 12.0832 121.773 12.9857L117.206 17.4379C116.838 17.7963 116.67 18.3126 116.757 18.8187L117.835 25.1052C118.054 26.3796 116.716 27.3514 115.572 26.7498L109.926 23.7816C109.472 23.5427 108.929 23.5427 108.474 23.7816L102.828 26.7498C101.684 27.3514 100.346 26.3796 100.565 25.1053L101.643 18.8187C101.73 18.3126 101.562 17.7963 101.195 17.4379L96.6271 12.9857C95.7012 12.0832 96.2121 10.5107 97.4917 10.3248L103.804 9.4076C104.312 9.33377 104.751 9.01464 104.978 8.55422L107.801 2.8345Z" fill="#F2C94C"/>
<path d="M139.001 2.8345C139.573 1.67503 141.227 1.67503 141.799 2.8345L144.622 8.55422C144.849 9.01464 145.288 9.33377 145.796 9.4076L152.108 10.3248C153.388 10.5107 153.899 12.0832 152.973 12.9857L148.406 17.4379C148.038 17.7963 147.87 18.3126 147.957 18.8187L149.035 25.1052C149.254 26.3796 147.916 27.3514 146.772 26.7498L141.126 23.7816C140.672 23.5427 140.129 23.5427 139.674 23.7816L134.028 26.7498C132.884 27.3514 131.546 26.3796 131.765 25.1053L132.843 18.8187C132.93 18.3126 132.762 17.7963 132.395 17.4379L127.827 12.9857C126.901 12.0832 127.412 10.5107 128.692 10.3248L135.004 9.4076C135.512 9.33377 135.951 9.01464 136.178 8.55422L139.001 2.8345Z" fill="#F2C94C"/>
</svg>
